<svg width="50" height="50" viewBox="0 0 50 50" fill="none" xmlns="http://www.w3.org/2000/svg">
<circle opacity="0.2" cx="25" cy="25" r="25" fill="#19CF79"/>
<path d="M37 20.9607V34.317C36.9993 35.0283 36.7181 35.7104 36.2182 36.2134C35.7182 36.7164 35.0404 36.9993 34.3333 37H29.8889C29.4174 37 28.9652 36.8115 28.6318 36.4761C28.2984 36.1407 28.1111 35.6857 28.1111 35.2113V30.2924C28.1111 30.0552 28.0175 29.8277 27.8508 29.66C27.6841 29.4923 27.458 29.398 27.2222 29.398H22.7778C22.542 29.398 22.3159 29.4923 22.1492 29.66C21.9825 29.8277 21.8889 30.0552 21.8889 30.2924V35.2113C21.8889 35.6857 21.7016 36.1407 21.3682 36.4761C21.0348 36.8115 20.5826 37 20.1111 37H15.6667C14.9596 36.9993 14.2818 36.7164 13.7818 36.2134C13.2819 35.7104 13.0007 35.0283 13 34.317V20.9607C13.0007 20.6519 13.0804 20.3484 13.2316 20.0796C13.3828 19.8108 13.6003 19.5857 13.8631 19.426L24.0853 13.255C24.3617 13.0882 24.6779 13 25.0002 13C25.3225 13 25.6388 13.0882 25.9151 13.255L36.1373 19.426C36.4001 19.5857 36.6175 19.8108 36.7686 20.0796C36.9197 20.3485 36.9994 20.6519 37 20.9607Z" fill="#19CF79"/>
</svg>
