<svg width="16" height="16" viewBox="0 0 16 16" fill="none" xmlns="http://www.w3.org/2000/svg">
<path d="M8 0C3.58873 0 0 3.58873 0 8C0 12.4113 3.58873 16 8 16C12.4113 16 16 12.4113 16 8C16 3.58873 12.4113 0 8 0ZM12 8.57143H8.57143V12C8.57143 12.3156 8.31557 12.5714 8 12.5714C7.68443 12.5714 7.42857 12.3156 7.42857 12V8.57143H4C3.68443 8.57143 3.42857 8.31557 3.42857 8C3.42857 7.68443 3.68443 7.42857 4 7.42857H7.42857V4C7.42857 3.68443 7.68443 3.42857 8 3.42857C8.31557 3.42857 8.57143 3.68443 8.57143 4V7.42857H12C12.3156 7.42857 12.5714 7.68443 12.5714 8C12.5714 8.31557 12.3156 8.57143 12 8.57143Z" fill="#19CF79"/>
</svg>
