<svg width="16" height="14" viewBox="0 0 16 14" fill="none" xmlns="http://www.w3.org/2000/svg">
<path d="M16 8.39999V13.3C16 13.6864 15.744 14 15.4286 14C15.1131 14 14.8571 13.6864 14.8571 13.3V12.6H1.14286V13.3C1.14286 13.6864 0.886857 14 0.571429 14C0.256 14 0 13.6864 0 13.3V8.39999C0 7.24219 0.769143 6.29999 1.71429 6.29999H14.2857C15.2309 6.29999 16 7.24219 16 8.39999Z" fill="#19CF79"/>
<path d="M1.71387 4.9V0.7C1.71387 0.3136 1.96987 0 2.2853 0H13.7139C14.0293 0 14.2853 0.3136 14.2853 0.7V4.9H12.571V4.2C12.571 3.4279 12.0584 2.8 11.4282 2.8H9.71387C9.08358 2.8 8.57101 3.4279 8.57101 4.2V4.9H7.42815V4.2C7.42815 3.4279 6.91558 2.8 6.2853 2.8H4.57101C3.94072 2.8 3.42815 3.4279 3.42815 4.2V4.9H1.71387Z" fill="#19CF79"/>
</svg>
